<?xml version="1.0" standalone="no"?>
<!DOCTYPE svg PUBLIC "-//W3C//DTD SVG 20010904//EN"
 "http://www.w3.org/TR/2001/REC-SVG-20010904/DTD/svg10.dtd">
<svg version="1.0" xmlns="http://www.w3.org/2000/svg"
 width="565.000000pt" height="1280.000000pt" viewBox="0 0 565.000000 1280.000000"
 preserveAspectRatio="xMidYMid meet">
<metadata>
Created by potrace 1.15, written by Peter Selinger 2001-2017
</metadata>
<g transform="translate(0.000000,1280.000000) scale(0.100000,-0.100000)"
fill="#000000" stroke="none">
<path d="M601 12176 c-9 -11 -15 -104 -22 -348 -5 -183 -7 -338 -5 -345 3 -8
22 -13 46 -13 43 0 50 -9 24 -31 -14 -12 -15 -216 -12 -2217 3 -2047 4 -2204
20 -2216 12 -9 190 -15 684 -24 367 -7 670 -14 672 -17 5 -4 -8 -2043 -28
-4645 -6 -685 -10 -1487 -10 -1782 l0 -538 608 0 c335 0 676 3 758 6 l150 7 2
741 c2 408 7 1197 12 1753 6 557 12 1486 15 2065 3 579 10 1208 15 1398 5 190
6 488 3 663 l-6 318 488 -2 c372 -1 489 2 495 11 5 9 57 11 198 8 167 -3 193
-1 208 13 15 16 15 183 6 2224 -7 1579 -13 2210 -21 2218 -18 18 -13 27 21 39
l31 11 -7 351 c-4 192 -9 353 -12 356 -3 3 -976 6 -2163 8 -1934 3 -2159 2
-2170 -12z"/>
</g>
</svg>
